<?xml version="1.0" standalone="no"?>
<!DOCTYPE svg PUBLIC "-//W3C//DTD SVG 20010904//EN"
 "http://www.w3.org/TR/2001/REC-SVG-20010904/DTD/svg10.dtd">
<svg version="1.0" xmlns="http://www.w3.org/2000/svg"
 width="512.000000pt" height="512.000000pt" viewBox="0 0 512.000000 512.000000"
 preserveAspectRatio="xMidYMid meet">
<metadata>
Created by potrace 1.16, written by Peter Selinger 2001-2019
</metadata>
<g transform="translate(0.000000,512.000000) scale(0.100000,-0.100000)"
fill="#000000" stroke="none">
<path d="M2589 4207 c-92 -35 -168 -122 -219 -252 -13 -33 -25 -62 -27 -64 -2
-3 -27 18 -56 47 -76 74 -151 106 -252 106 -69 0 -90 -4 -146 -31 -99 -46
-185 -133 -224 -227 -14 -34 -9 -30 62 42 102 103 183 145 281 145 113 1 207
-56 241 -146 6 -16 14 -61 17 -100 l6 -72 -30 60 c-53 111 -117 155 -220 155
-153 0 -305 -151 -357 -355 -19 -74 -19 -219 0 -308 8 -37 32 -123 54 -192 27
-82 41 -142 41 -177 0 -58 -25 -122 -58 -151 -21 -19 -21 -19 -27 20 -21 128
-86 260 -160 320 -164 135 -424 -4 -497 -266 -67 -243 51 -501 280 -609 l80
-38 -35 -54 c-268 -416 -192 -852 191 -1095 105 -67 204 -96 346 -104 98 -6
134 -12 165 -28 65 -34 173 -63 234 -63 37 0 85 11 141 30 130 47 194 49 311
11 119 -39 187 -40 272 -7 46 18 82 24 142 24 277 2 613 258 700 534 75 236
-18 550 -256 867 -29 38 -30 42 -10 31 13 -6 59 -14 102 -17 146 -10 267 42
379 163 111 120 164 266 164 449 0 230 -88 416 -230 486 -57 28 -70 31 -136
28 -90 -5 -169 -41 -273 -125 -38 -31 -79 -61 -89 -66 -17 -9 -18 -7 -12 13
25 93 29 167 17 313 -17 202 -33 275 -81 373 -87 177 -212 225 -345 133 -40
-28 -135 -141 -135 -161 0 -5 -4 -9 -8 -9 -4 0 -15 30 -25 68 -51 195 -128
297 -233 307 -29 3 -64 0 -85 -8z m138 -73 c85 -55 150 -247 133 -394 -5 -44
-6 -44 -13 -15 -5 17 -28 71 -52 121 -55 115 -115 174 -174 174 -49 0 -150
-65 -198 -129 -42 -55 -42 -38 1 55 40 86 132 187 187 203 40 12 84 6 116 -15z
m528 -159 c62 -30 128 -123 183 -259 55 -134 51 -163 -11 -73 -108 157 -226
204 -343 138 -28 -17 -79 -60 -112 -97 l-62 -67 16 54 c22 77 69 174 105 220
37 47 122 99 162 99 16 0 44 -7 62 -15z m-620 -42 c29 -10 93 -121 122 -207
24 -72 27 -97 27 -216 0 -118 -3 -142 -23 -195 -15 -36 -41 -77 -66 -102 -39
-40 -46 -43 -95 -43 -67 0 -112 22 -157 76 -95 117 -123 363 -55 499 28 58 91
133 138 164 47 31 76 37 109 24z m-522 -134 c97 -27 160 -152 216 -431 22
-112 62 -195 124 -258 51 -52 128 -90 182 -90 56 0 133 39 181 92 l41 44 28
-63 c53 -122 125 -187 210 -188 82 0 124 44 172 182 25 71 28 91 27 218 0 126
-3 148 -28 223 -15 46 -30 82 -32 79 -2 -2 0 -56 6 -118 27 -292 -49 -489
-180 -463 -84 17 -170 173 -170 309 0 198 156 405 305 405 111 0 201 -142 212
-336 10 -162 -29 -279 -151 -459 -80 -119 -90 -147 -84 -244 10 -153 83 -302
245 -502 142 -175 202 -263 249 -365 96 -210 102 -388 20 -529 -15 -25 -31
-45 -35 -45 -5 0 -12 24 -16 53 -26 214 -91 353 -229 493 -82 82 -198 165
-314 223 -38 19 -96 64 -152 116 -77 73 -106 93 -205 141 -94 45 -121 63 -145
96 -38 52 -60 125 -60 197 0 67 -9 58 -39 -36 -38 -124 -102 -189 -207 -212
-122 -27 -237 -93 -344 -197 -36 -34 -117 -107 -180 -161 -63 -54 -136 -125
-163 -158 -96 -119 -145 -253 -134 -368 6 -71 27 -102 27 -41 1 97 48 207 136
315 47 58 115 120 254 230 25 20 82 70 128 111 91 83 160 122 242 140 107 22
170 -12 189 -103 6 -28 12 -98 12 -157 1 -59 3 -98 5 -87 31 148 68 239 118
283 31 27 45 32 87 32 66 0 117 -27 171 -92 92 -111 96 -113 196 -136 111 -26
164 -52 260 -127 175 -137 286 -334 286 -510 0 -108 -14 -144 -80 -204 -98
-90 -320 -183 -359 -151 -12 10 -33 3 -106 -35 -121 -62 -159 -64 -288 -11
-86 35 -100 38 -170 34 -62 -3 -92 -11 -160 -42 -80 -37 -88 -38 -165 -34 -69
4 -94 11 -168 46 -62 28 -91 48 -99 66 -11 24 -15 25 -64 20 -126 -15 -297 53
-418 166 -267 249 -232 617 95 1001 90 106 103 129 158 291 27 79 65 188 84
243 20 55 36 114 38 130 1 17 -18 79 -41 140 -123 312 -123 559 -3 719 77 101
182 144 285 115z m1813 -535 c71 -34 131 -136 158 -266 20 -96 20 -155 1 -252
-30 -159 -102 -264 -223 -323 -70 -35 -82 -38 -161 -38 -76 1 -94 4 -153 33
-37 18 -76 46 -88 61 -48 68 -45 198 7 328 30 75 123 204 186 258 l42 36 -63
-32 c-35 -17 -65 -30 -67 -27 -2 2 12 23 31 47 18 24 34 46 34 48 0 13 -80
-60 -121 -112 -88 -108 -149 -250 -164 -380 -12 -110 -22 -116 -58 -36 -44 99
-17 266 62 388 48 75 126 138 246 200 156 81 258 101 331 67z m-2457 -268 c40
-21 90 -82 120 -146 20 -44 26 -75 29 -151 5 -109 -12 -188 -55 -254 -20 -30
-22 -36 -7 -25 49 39 90 106 104 173 9 39 9 38 5 -17 -5 -68 -42 -151 -93
-208 -155 -171 -391 -44 -409 220 -6 89 7 165 43 242 65 139 177 210 263 166z"/>
<path d="M1985 3609 c-28 -26 -60 -71 -83 -117 l-37 -76 0 -145 c1 -133 3
-154 29 -231 38 -114 82 -160 152 -160 96 0 192 77 235 189 17 44 23 82 25
176 2 94 1 107 -5 57 -7 -57 -21 -97 -21 -60 0 28 -51 172 -90 253 -79 163
-124 188 -205 114z m139 -127 c116 -249 89 -462 -59 -462 -53 0 -87 26 -119
88 -76 151 -52 358 54 472 l31 33 28 -27 c16 -15 45 -62 65 -104z"/>
<path d="M2392 2965 c-80 -18 -192 -72 -270 -130 -85 -64 -201 -191 -268 -292
-54 -82 -100 -171 -92 -178 2 -2 28 28 58 67 72 94 198 220 285 287 135 102
311 170 370 143 33 -15 45 -48 46 -130 l0 -67 38 81 c43 92 68 114 127 114
127 0 361 -214 469 -430 43 -85 54 -81 30 11 -41 163 -227 390 -387 474 -116
62 -267 80 -406 50z"/>
<path d="M3760 3153 c0 -4 16 -53 35 -109 58 -168 64 -338 14 -440 -47 -97
-150 -162 -239 -149 l-35 5 40 -20 c89 -44 206 -12 285 77 69 79 86 186 54
341 -9 42 -26 102 -39 134 -36 89 -115 199 -115 161z"/>
<path d="M1250 3310 c-108 -23 -220 -102 -282 -199 -29 -47 -75 -178 -65 -188
3 -3 17 18 31 46 15 28 55 82 91 119 144 153 318 191 453 98 63 -44 86 -51
106 -31 9 9 16 22 16 30 0 22 -88 92 -137 109 -59 20 -156 27 -213 16z"/>
</g>
</svg>